<svg width="561.5" height="156.752" viewBox="0 0 561.5 156.752" xmlns="http://www.w3.org/2000/svg"><g id="svgGroup" stroke-linecap="round" fill-rule="evenodd" font-size="9pt" stroke="#f2f2f2" stroke-width="0.25mm" fill="#f2f2f2" style="stroke:#f2f2f2;stroke-width:0.25mm;fill:#f2f2f2"><path d="M 286 0 L 411.5 0 L 411.5 14.75 L 356.75 14.75 L 356.75 156.75 L 340.75 156.75 L 340.75 14.75 L 286 14.75 L 286 0 Z M 169 115.5 L 152.75 156.75 L 135.75 156.75 L 198.75 0 L 215.5 0 L 278.25 156.75 L 261 156.75 L 245 115.5 L 169 115.5 Z M 452.25 115.5 L 436 156.75 L 419 156.75 L 482 0 L 498.75 0 L 561.5 156.75 L 544.25 156.75 L 528.25 115.5 L 452.25 115.5 Z M 42.75 156.75 L 0 156.75 L 0 0 L 42.75 0 A 247.925 247.925 0 0 1 56.917 0.379 Q 70.692 1.17 80.146 3.615 A 68.953 68.953 0 0 1 81.125 3.875 A 58.204 58.204 0 0 1 92.408 8.199 A 43.297 43.297 0 0 1 103.75 16.5 Q 111.478 24.697 115.367 38.267 A 79.396 79.396 0 0 1 115.875 40.125 Q 118.677 50.882 119.453 66.019 A 239.4 239.4 0 0 1 119.75 78.25 A 144.785 144.785 0 0 1 118.306 99.442 Q 114.617 124.309 101.5 137.875 A 54.542 54.542 0 0 1 81.272 150.778 Q 65.531 156.75 42.75 156.75 Z M 42.75 14.75 L 16 14.75 L 16 141.5 L 42.75 141.5 A 120.019 120.019 0 0 0 59.029 140.477 Q 79.619 137.649 89.625 127 A 41.755 41.755 0 0 0 97.928 113.348 Q 102.72 101.02 103.197 82.438 A 163.118 163.118 0 0 0 103.25 78.25 A 214.227 214.227 0 0 0 102.969 66.939 Q 102.352 55.29 100.375 47.125 A 59.433 59.433 0 0 0 97.779 38.905 Q 96.001 34.49 93.619 31.016 A 32.392 32.392 0 0 0 91.5 28.25 A 32.676 32.676 0 0 0 81.297 20.69 A 44.555 44.555 0 0 0 73.75 17.875 Q 62.5 14.75 42.75 14.75 Z M 194 51.25 L 174.5 101.25 L 239.5 101.25 L 220 51.25 Q 216.25 41.5 212.875 32.125 A 629.048 629.048 0 0 1 209.656 22.969 A 534.095 534.095 0 0 1 206.75 14.25 Q 204.75 20.5 202.25 28 Q 199.843 35.22 194.425 50.085 A 2441.32 2441.32 0 0 1 194 51.25 Z M 477.25 51.25 L 457.75 101.25 L 522.75 101.25 L 503.25 51.25 Q 499.5 41.5 496.125 32.125 A 629.048 629.048 0 0 1 492.906 22.969 A 534.095 534.095 0 0 1 490 14.25 Q 488 20.5 485.5 28 Q 483.093 35.22 477.675 50.085 A 2441.32 2441.32 0 0 1 477.25 51.25 Z" vector-effect="non-scaling-stroke"/></g></svg>