<svg xmlns="http://www.w3.org/2000/svg" xmlns:xlink="http://www.w3.org/1999/xlink" width="500" zoomAndPan="magnify" viewBox="0 0 375 374.999991" height="500" preserveAspectRatio="xMidYMid meet" version="1.0"><defs><g/><clipPath id="id1"><path d="M 238.246094 140.953125 L 322 140.953125 L 322 205.453125 L 238.246094 205.453125 Z M 238.246094 140.953125 " clip-rule="nonzero"/></clipPath><clipPath id="id2"><path d="M 124.007812 112.5 L 250.757812 112.5 L 250.757812 262.5 L 124.007812 262.5 Z M 124.007812 112.5 " clip-rule="nonzero"/></clipPath><clipPath id="id3"><path d="M 53 150.269531 L 136.75 150.269531 L 136.75 214.769531 L 53 214.769531 Z M 53 150.269531 " clip-rule="nonzero"/></clipPath></defs><path fill="#2c92d5" d="M 271.527344 190.070312 C 267.535156 190.570312 262.785156 191.09375 257.179688 191.640625 C 253.851562 191.964844 250.8125 194.472656 248.601562 196.894531 C 247.261719 198.371094 246.066406 199.960938 245.019531 201.664062 C 247.886719 199.863281 252.636719 199.128906 258.113281 198.539062 C 263.589844 197.953125 269.800781 197.503906 275.59375 196.277344 C 279.839844 195.378906 283.117188 193.808594 285.5 191.980469 C 287.882812 190.148438 289.367188 188.058594 290.027344 186.113281 C 289.15625 186.882812 286.550781 187.71875 281.359375 188.632812 C 278.765625 189.09375 275.523438 189.570312 271.527344 190.070312 Z M 271.527344 190.070312 " fill-opacity="1" fill-rule="nonzero"/><path fill="#2c92d5" d="M 289.914062 176.5625 C 287.113281 177.0625 283.804688 177.566406 279.871094 178.105469 C 279.414062 178.167969 278.949219 178.230469 278.480469 178.296875 C 273.859375 178.917969 268.425781 179.613281 262.019531 180.394531 C 258.703125 180.796875 255.890625 183.117188 253.890625 185.375 C 252.644531 186.789062 251.5625 188.316406 250.644531 189.964844 C 251.738281 189.457031 254.523438 188.808594 255.984375 188.535156 C 259.378906 187.898438 262.839844 187.515625 266.265625 187.128906 C 269.078125 186.808594 271.816406 186.511719 274.488281 186.191406 C 278.753906 185.675781 282.789062 185.105469 286.703125 184.296875 C 287.464844 184.136719 288.214844 183.96875 288.949219 183.785156 C 292.839844 182.816406 295.835938 181.027344 298.0625 179.023438 C 300.457031 176.859375 301.953125 174.445312 302.644531 172.421875 C 300.808594 173.914062 297.644531 175.046875 292.101562 176.144531 C 291.410156 176.285156 290.679688 176.421875 289.914062 176.5625 Z M 289.914062 176.5625 " fill-opacity="1" fill-rule="nonzero"/><path fill="#2c92d5" d="M 286.53125 166.382812 C 281.046875 167.171875 274.570312 168.050781 266.863281 169.144531 C 260.019531 170.117188 256.269531 178.265625 256.269531 178.265625 C 257.292969 177.988281 261.390625 177.28125 262.59375 177.132812 C 270.949219 176.105469 277.78125 175.351562 283.828125 174.5625 C 289.878906 173.769531 295.152344 172.941406 300.390625 171.761719 C 304.839844 170.75 308.195312 168.542969 310.621094 166.0625 C 313.046875 163.585938 314.539062 160.832031 315.261719 158.734375 C 312.0625 161.253906 307.671875 162.765625 300.222656 164.191406 C 296.5 164.902344 292.011719 165.597656 286.53125 166.382812 Z M 286.53125 166.382812 " fill-opacity="1" fill-rule="nonzero"/><g clip-path="url(#id1)"><path fill="#2c92d5" d="M 321.664062 140.976562 C 321.113281 145.765625 309.589844 150.691406 266.496094 157.761719 C 253.289062 159.929688 249.539062 164.683594 246.449219 174.773438 C 243.839844 183.292969 239.042969 202.207031 238.246094 205.429688 C 241.925781 203.003906 249.871094 184.183594 252.628906 178.070312 C 255.386719 171.957031 257.019531 167.363281 266.492188 166.007812 C 292.976562 162.226562 305.039062 159.894531 309.683594 158.230469 C 323.742188 153.191406 321.664062 140.976562 321.664062 140.976562 Z M 321.664062 140.976562 " fill-opacity="1" fill-rule="nonzero"/></g><g clip-path="url(#id2)"><path fill="#2c92d5" d="M 249.378906 134.339844 C 247.503906 132.214844 244.390625 132.773438 241.890625 132.203125 C 223.765625 129.222656 206.738281 121.824219 190.472656 113.535156 C 189.699219 113.167969 188.894531 112.851562 188.082031 112.570312 L 186.910156 112.570312 C 184.085938 113.414062 181.582031 115.023438 178.921875 116.25 C 164.660156 123.25 149.699219 129.28125 133.972656 132.039062 C 131.710938 132.496094 129.355469 132.460938 127.140625 133.121094 C 125.382812 133.894531 124.09375 135.734375 124.191406 137.683594 C 124.011719 148.519531 124.402344 159.359375 125.253906 170.160156 C 126.476562 183.90625 128.457031 197.726562 133.085938 210.789062 C 135.328125 216.847656 138.183594 222.800781 142.484375 227.6875 C 154.21875 241.566406 168.800781 252.941406 184.753906 261.597656 C 185.433594 261.941406 186.144531 262.214844 186.871094 262.429688 L 187.890625 262.429688 C 190.738281 261.628906 193.085938 259.738281 195.6875 258.402344 C 208.050781 251.09375 219.359375 241.992188 229.097656 231.441406 C 232.039062 228.113281 235.0625 224.785156 237.167969 220.851562 C 242.066406 212.15625 244.648438 202.398438 246.582031 192.679688 C 249.910156 174.96875 250.769531 156.882812 250.671875 138.894531 C 250.726562 137.289062 250.605469 135.527344 249.378906 134.339844 Z M 242.5 188.699219 C 240.507812 199.613281 237.917969 210.722656 232.046875 220.277344 C 226.832031 227.816406 220.113281 234.171875 213.234375 240.175781 C 205.300781 246.941406 196.574219 252.738281 187.421875 257.730469 C 171.363281 249.019531 156.65625 237.570312 145.046875 223.414062 C 139.066406 215.769531 136.234375 206.257812 133.996094 196.960938 C 129.671875 177.460938 128.648438 157.382812 128.925781 137.460938 C 149.644531 135.125 169.003906 126.605469 187.425781 117.277344 C 205.839844 126.621094 225.226562 135.113281 245.949219 137.449219 C 246.210938 154.582031 245.390625 171.789062 242.5 188.699219 Z M 242.5 188.699219 " fill-opacity="1" fill-rule="nonzero"/></g><path fill="#2c92d5" d="M 138.234375 145.597656 C 138.578125 164.03125 139.640625 182.664062 144.515625 200.53125 C 146.425781 207.117188 148.882812 213.808594 153.585938 218.953125 C 163.050781 230.257812 174.785156 239.476562 187.429688 246.984375 C 200.882812 238.996094 213.304688 229.027344 223.078125 216.75 C 227.707031 210.40625 229.898438 202.699219 231.710938 195.160156 C 235.355469 178.917969 236.335938 162.203125 236.605469 145.601562 C 219.394531 142.28125 203.050781 135.585938 187.425781 127.785156 C 171.789062 135.582031 155.453125 142.289062 138.234375 145.597656 Z M 138.234375 145.597656 " fill-opacity="1" fill-rule="nonzero"/><path fill="#2c92d5" d="M 103.46875 199.386719 C 107.460938 199.886719 112.210938 200.410156 117.816406 200.957031 C 121.144531 201.28125 124.183594 203.785156 126.394531 206.210938 C 127.734375 207.6875 128.929688 209.277344 129.976562 210.980469 C 127.105469 209.179688 122.359375 208.445312 116.882812 207.855469 C 111.402344 207.269531 105.195312 206.820312 99.402344 205.59375 C 95.15625 204.695312 91.878906 203.125 89.496094 201.296875 C 87.113281 199.464844 85.628906 197.375 84.96875 195.425781 C 85.839844 196.199219 88.445312 197.035156 93.636719 197.949219 C 96.230469 198.40625 99.472656 198.886719 103.46875 199.386719 Z M 103.46875 199.386719 " fill-opacity="1" fill-rule="nonzero"/><path fill="#2c92d5" d="M 85.082031 185.878906 C 87.882812 186.378906 91.191406 186.878906 95.125 187.421875 C 95.582031 187.484375 96.046875 187.546875 96.515625 187.609375 C 101.136719 188.234375 106.570312 188.929688 112.976562 189.710938 C 116.292969 190.113281 119.105469 192.433594 121.105469 194.691406 C 122.351562 196.105469 123.433594 197.632812 124.351562 199.28125 C 123.257812 198.773438 120.472656 198.125 119.011719 197.847656 C 115.617188 197.214844 112.15625 196.832031 108.730469 196.445312 C 105.917969 196.125 103.179688 195.828125 100.507812 195.507812 C 96.242188 194.992188 92.203125 194.421875 88.292969 193.613281 C 87.53125 193.453125 86.78125 193.285156 86.046875 193.101562 C 82.15625 192.132812 79.160156 190.34375 76.933594 188.335938 C 74.539062 186.175781 73.042969 183.761719 72.351562 181.738281 C 74.1875 183.230469 77.351562 184.363281 82.894531 185.460938 C 83.585938 185.601562 84.316406 185.738281 85.082031 185.878906 Z M 85.082031 185.878906 " fill-opacity="1" fill-rule="nonzero"/><path fill="#2c92d5" d="M 88.464844 175.699219 C 93.949219 176.484375 100.425781 177.367188 108.132812 178.460938 C 114.976562 179.433594 118.726562 187.582031 118.726562 187.582031 C 117.703125 187.304688 113.605469 186.597656 112.402344 186.449219 C 104.046875 185.421875 97.214844 184.667969 91.167969 183.878906 C 85.117188 183.085938 79.84375 182.257812 74.605469 181.078125 C 70.152344 180.066406 66.796875 177.859375 64.375 175.378906 C 61.949219 172.902344 60.457031 170.148438 59.730469 168.046875 C 62.933594 170.570312 67.324219 172.082031 74.773438 173.507812 C 78.496094 174.21875 82.980469 174.914062 88.464844 175.699219 Z M 88.464844 175.699219 " fill-opacity="1" fill-rule="nonzero"/><g clip-path="url(#id3)"><path fill="#2c92d5" d="M 53.332031 150.292969 C 53.882812 155.082031 65.40625 160.007812 108.5 167.078125 C 121.707031 169.246094 125.457031 174 128.546875 184.089844 C 131.15625 192.609375 135.953125 211.523438 136.75 214.746094 C 133.070312 212.320312 125.125 193.5 122.367188 187.386719 C 119.609375 181.273438 117.976562 176.679688 108.5 175.324219 C 82.019531 171.539062 69.957031 169.210938 65.3125 167.546875 C 51.253906 162.507812 53.332031 150.292969 53.332031 150.292969 Z M 53.332031 150.292969 " fill-opacity="1" fill-rule="nonzero"/></g><g fill="#191919" fill-opacity="1"><g transform="translate(165.510668, 219.751961)"><g><path d="M 20.527344 0 C 31.121094 0 40.960938 -7.40625 40.960938 -19.121094 C 40.960938 -26.902344 37.210938 -32.902344 30.277344 -36.089844 C 25.589844 -38.242188 20.996094 -38.242188 20.527344 -38.242188 C 15.652344 -38.242188 10.96875 -41.054688 10.96875 -46.492188 C 10.96875 -51.742188 15.371094 -54.648438 20.527344 -54.648438 C 25.496094 -54.648438 29.902344 -51.929688 30.089844 -46.492188 L 40.960938 -46.492188 C 40.773438 -57.648438 31.871094 -65.613281 20.527344 -65.613281 C 9.9375 -65.613281 0 -58.117188 0 -46.492188 C 0 -38.710938 3.84375 -32.714844 10.6875 -29.527344 C 15.464844 -27.371094 19.964844 -27.371094 20.527344 -27.371094 C 24.933594 -27.183594 30.089844 -24.652344 30.089844 -19.121094 C 30.089844 -13.964844 25.589844 -10.96875 20.527344 -10.96875 C 15.652344 -10.96875 11.15625 -13.683594 10.96875 -19.121094 L 0 -19.121094 C 0.1875 -7.6875 9.1875 -0.28125 20.527344 0 Z M 20.527344 0 "/></g></g></g></svg>