<svg xmlns="http://www.w3.org/2000/svg" xmlns:xlink="http://www.w3.org/1999/xlink" width="500" zoomAndPan="magnify" viewBox="0 0 375 374.999991" height="500" preserveAspectRatio="xMidYMid meet" version="1.0"><defs><g/><clipPath id="id1"><path d="M 246.878906 133.035156 L 345 133.035156 L 345 208.035156 L 246.878906 208.035156 Z M 246.878906 133.035156 " clip-rule="nonzero"/></clipPath><clipPath id="id2"><path d="M 113.207031 99.742188 L 261.707031 99.742188 L 261.707031 275.242188 L 113.207031 275.242188 Z M 113.207031 99.742188 " clip-rule="nonzero"/></clipPath><clipPath id="id3"><path d="M 30 143.933594 L 128.109375 143.933594 L 128.109375 218.933594 L 30 218.933594 Z M 30 143.933594 " clip-rule="nonzero"/></clipPath></defs><path fill="#2c92d5" d="M 285.707031 190.148438 C 281.046875 190.730469 275.507812 191.335938 268.96875 191.972656 C 265.085938 192.351562 261.539062 195.261719 258.960938 198.082031 C 257.394531 199.800781 256 201.648438 254.78125 203.625 C 258.128906 201.53125 263.667969 200.679688 270.058594 199.996094 C 276.449219 199.3125 283.691406 198.792969 290.449219 197.363281 C 295.402344 196.320312 299.230469 194.496094 302.007812 192.367188 C 304.789062 190.238281 306.523438 187.808594 307.292969 185.542969 C 306.277344 186.441406 303.234375 187.414062 297.179688 188.476562 C 294.152344 189.007812 290.367188 189.566406 285.707031 190.148438 Z M 285.707031 190.148438 " fill-opacity="1" fill-rule="nonzero"/><path fill="#2c92d5" d="M 307.15625 174.441406 C 303.890625 175.023438 300.027344 175.605469 295.4375 176.234375 C 294.90625 176.308594 294.367188 176.382812 293.816406 176.457031 C 288.425781 177.179688 282.089844 177.988281 274.617188 178.894531 C 270.746094 179.363281 267.460938 182.0625 265.128906 184.6875 C 263.675781 186.332031 262.414062 188.109375 261.34375 190.023438 C 262.621094 189.433594 265.867188 188.679688 267.574219 188.359375 C 271.535156 187.621094 275.570312 187.179688 279.570312 186.726562 C 282.847656 186.351562 286.046875 186.007812 289.160156 185.636719 C 294.136719 185.039062 298.847656 184.375 303.410156 183.433594 C 304.300781 183.25 305.175781 183.050781 306.03125 182.839844 C 310.570312 181.714844 314.066406 179.632812 316.664062 177.300781 C 319.457031 174.789062 321.203125 171.980469 322.011719 169.625 C 319.867188 171.359375 316.175781 172.679688 309.710938 173.957031 C 308.902344 174.117188 308.050781 174.28125 307.15625 174.441406 Z M 307.15625 174.441406 " fill-opacity="1" fill-rule="nonzero"/><path fill="#2c92d5" d="M 303.210938 162.605469 C 296.8125 163.519531 289.253906 164.546875 280.261719 165.816406 C 272.28125 166.945312 267.90625 176.421875 267.90625 176.421875 C 269.097656 176.097656 273.878906 175.277344 275.285156 175.105469 C 285.035156 173.910156 293 173.035156 300.058594 172.113281 C 307.117188 171.195312 313.269531 170.230469 319.382812 168.859375 C 324.574219 167.683594 328.488281 165.117188 331.316406 162.234375 C 334.144531 159.351562 335.886719 156.152344 336.730469 153.710938 C 333 156.644531 327.875 158.398438 319.1875 160.058594 C 314.84375 160.886719 309.605469 161.691406 303.210938 162.605469 Z M 303.210938 162.605469 " fill-opacity="1" fill-rule="nonzero"/><g clip-path="url(#id1)"><path fill="#2c92d5" d="M 344.199219 133.066406 C 343.554688 138.632812 330.113281 144.359375 279.835938 152.582031 C 264.429688 155.101562 260.054688 160.628906 256.449219 172.359375 C 253.40625 182.269531 247.808594 204.257812 246.878906 208.007812 C 251.171875 205.1875 260.4375 183.300781 263.65625 176.195312 C 266.875 169.089844 268.777344 163.746094 279.835938 162.167969 C 310.730469 157.769531 324.804688 155.0625 330.21875 153.128906 C 346.625 147.265625 344.199219 133.066406 344.199219 133.066406 Z M 344.199219 133.066406 " fill-opacity="1" fill-rule="nonzero"/></g><g clip-path="url(#id2)"><path fill="#2c92d5" d="M 260.089844 125.289062 C 257.894531 122.804688 254.25 123.457031 251.316406 122.792969 C 230.085938 119.304688 210.136719 110.644531 191.078125 100.945312 C 190.171875 100.515625 189.226562 100.144531 188.277344 99.816406 L 186.902344 99.816406 C 183.59375 100.800781 180.664062 102.6875 177.546875 104.121094 C 160.835938 112.316406 143.308594 119.371094 124.882812 122.597656 C 122.230469 123.132812 119.472656 123.089844 116.875 123.863281 C 114.820312 124.769531 113.308594 126.921875 113.421875 129.199219 C 113.210938 141.878906 113.671875 154.566406 114.664062 167.203125 C 116.101562 183.285156 118.421875 199.460938 123.84375 214.742188 C 126.472656 221.832031 129.816406 228.796875 134.855469 234.515625 C 148.605469 250.757812 165.683594 264.066406 184.378906 274.195312 C 185.171875 274.59375 186.003906 274.914062 186.855469 275.167969 L 188.050781 275.167969 C 191.386719 274.230469 194.140625 272.019531 197.1875 270.457031 C 211.671875 261.902344 224.921875 251.253906 236.332031 238.90625 C 239.777344 235.015625 243.320312 231.117188 245.785156 226.515625 C 251.523438 216.34375 254.550781 204.921875 256.816406 193.554688 C 260.714844 172.828125 261.722656 151.667969 261.605469 130.621094 C 261.671875 128.742188 261.527344 126.679688 260.089844 125.289062 Z M 252.03125 188.894531 C 249.699219 201.664062 246.664062 214.664062 239.785156 225.84375 C 233.675781 234.667969 225.804688 242.105469 217.742188 249.125 C 208.449219 257.042969 198.226562 263.824219 187.503906 269.667969 C 168.6875 259.476562 151.457031 246.078125 137.855469 229.515625 C 130.847656 220.570312 127.53125 209.4375 124.910156 198.5625 C 119.84375 175.746094 118.640625 152.25 118.96875 128.941406 C 143.242188 126.207031 165.925781 116.242188 187.507812 105.324219 C 209.082031 116.253906 231.792969 126.195312 256.074219 128.929688 C 256.378906 148.976562 255.417969 169.105469 252.03125 188.894531 Z M 252.03125 188.894531 " fill-opacity="1" fill-rule="nonzero"/></g><path fill="#2c92d5" d="M 129.875 138.460938 C 130.28125 160.03125 131.519531 181.835938 137.234375 202.738281 C 139.472656 210.445312 142.347656 218.273438 147.859375 224.292969 C 158.949219 237.519531 172.699219 248.308594 187.511719 257.097656 C 203.273438 247.746094 217.828125 236.082031 229.277344 221.71875 C 234.699219 214.292969 237.269531 205.277344 239.390625 196.457031 C 243.660156 177.449219 244.8125 157.890625 245.128906 138.464844 C 224.960938 134.582031 205.8125 126.746094 187.503906 117.621094 C 169.1875 126.742188 150.050781 134.589844 129.875 138.460938 Z M 129.875 138.460938 " fill-opacity="1" fill-rule="nonzero"/><path fill="#2c92d5" d="M 89.285156 201.046875 C 93.945312 201.628906 99.484375 202.238281 106.023438 202.875 C 109.90625 203.25 113.453125 206.164062 116.03125 208.984375 C 117.597656 210.699219 118.992188 212.550781 120.210938 214.527344 C 116.863281 212.433594 111.324219 211.582031 104.933594 210.894531 C 98.542969 210.210938 91.300781 209.691406 84.542969 208.265625 C 79.585938 207.21875 75.761719 205.394531 72.980469 203.269531 C 70.203125 201.140625 68.46875 198.707031 67.699219 196.445312 C 68.714844 197.34375 71.753906 198.3125 77.8125 199.378906 C 80.839844 199.910156 84.621094 200.464844 89.285156 201.046875 Z M 89.285156 201.046875 " fill-opacity="1" fill-rule="nonzero"/><path fill="#2c92d5" d="M 67.835938 185.339844 C 71.097656 185.925781 74.960938 186.507812 79.550781 187.136719 C 80.082031 187.207031 80.625 187.28125 81.175781 187.355469 C 86.566406 188.082031 92.902344 188.886719 100.375 189.796875 C 104.246094 190.265625 107.527344 192.964844 109.859375 195.589844 C 111.316406 197.230469 112.578125 199.011719 113.648438 200.925781 C 112.371094 200.335938 109.125 199.578125 107.417969 199.261719 C 103.457031 198.523438 99.417969 198.078125 95.421875 197.628906 C 92.140625 197.253906 88.945312 196.910156 85.828125 196.539062 C 80.855469 195.9375 76.144531 195.277344 71.578125 194.332031 C 70.691406 194.148438 69.816406 193.953125 68.957031 193.742188 C 64.417969 192.613281 60.925781 190.535156 58.328125 188.199219 C 55.535156 185.6875 53.789062 182.878906 52.980469 180.527344 C 55.125 182.261719 58.816406 183.582031 65.28125 184.859375 C 66.089844 185.019531 66.941406 185.179688 67.835938 185.339844 Z M 67.835938 185.339844 " fill-opacity="1" fill-rule="nonzero"/><path fill="#2c92d5" d="M 71.78125 173.507812 C 78.175781 174.421875 85.734375 175.445312 94.726562 176.71875 C 102.707031 177.847656 107.085938 187.320312 107.085938 187.320312 C 105.890625 186.996094 101.113281 186.179688 99.707031 186.003906 C 89.957031 184.808594 81.992188 183.933594 74.933594 183.015625 C 67.875 182.09375 61.722656 181.132812 55.609375 179.761719 C 50.417969 178.582031 46.503906 176.019531 43.675781 173.136719 C 40.847656 170.253906 39.105469 167.050781 38.257812 164.609375 C 41.992188 167.542969 47.117188 169.300781 55.804688 170.957031 C 60.148438 171.785156 65.382812 172.589844 71.78125 173.507812 Z M 71.78125 173.507812 " fill-opacity="1" fill-rule="nonzero"/><g clip-path="url(#id3)"><path fill="#2c92d5" d="M 30.792969 143.96875 C 31.4375 149.53125 44.878906 155.257812 95.15625 163.484375 C 110.5625 166 114.9375 171.527344 118.542969 183.261719 C 121.585938 193.167969 127.183594 215.15625 128.109375 218.90625 C 123.820312 216.085938 114.550781 194.203125 111.332031 187.097656 C 108.117188 179.988281 106.210938 174.644531 95.15625 173.070312 C 64.261719 168.671875 50.1875 165.964844 44.769531 164.027344 C 28.367188 158.167969 30.792969 143.96875 30.792969 143.96875 Z M 30.792969 143.96875 " fill-opacity="1" fill-rule="nonzero"/></g><g fill="#191919" fill-opacity="1"><g transform="translate(161.770131, 225.238239)"><g><path d="M 24.019531 0 C 36.414062 0 47.929688 -8.664062 47.929688 -22.375 C 47.929688 -31.476562 43.542969 -38.496094 35.425781 -42.226562 C 29.941406 -44.75 24.566406 -44.75 24.019531 -44.75 C 18.316406 -44.75 12.832031 -48.039062 12.832031 -54.402344 C 12.832031 -60.542969 17.988281 -63.945312 24.019531 -63.945312 C 29.832031 -63.945312 34.988281 -60.761719 35.207031 -54.402344 L 47.929688 -54.402344 C 47.710938 -67.453125 37.292969 -76.777344 24.019531 -76.777344 C 11.625 -76.777344 0 -68 0 -54.402344 C 0 -45.296875 4.496094 -38.277344 12.503906 -34.550781 C 18.097656 -32.027344 23.363281 -32.027344 24.019531 -32.027344 C 29.175781 -31.808594 35.207031 -28.847656 35.207031 -22.375 C 35.207031 -16.34375 29.941406 -12.832031 24.019531 -12.832031 C 18.316406 -12.832031 13.050781 -16.011719 12.832031 -22.375 L 0 -22.375 C 0.21875 -8.992188 10.75 -0.328125 24.019531 0 Z M 24.019531 0 "/></g></g></g></svg>