<svg width="117.96" height="37.62" viewBox="0 0 117.96 37.62" xmlns="http://www.w3.org/2000/svg"><g id="svgGroup" stroke-linecap="round" fill-rule="evenodd" font-size="9pt" stroke="black" stroke-width="0.25mm" fill="#000000" style="stroke:black;stroke-width:0.25mm;fill:#000000"><path d="M 76.74 0 L 85.32 0 L 85.32 37.62 L 78.54 37.62 L 78.54 11.52 L 69.96 30.24 L 64.02 30.24 L 55.5 11.46 L 55.5 37.62 L 48.72 37.62 L 48.72 0 L 57.6 0 L 67.14 21.42 L 76.74 0 Z M 99.72 30.84 L 117.96 30.84 L 117.96 37.62 L 92.52 37.62 L 92.52 0 L 117.42 0 L 117.42 6.48 L 99.72 6.48 L 99.72 15.36 L 115.2 15.36 L 115.2 21.54 L 99.72 21.54 L 99.72 30.84 Z M 0 0 L 29.94 0 L 29.94 6.48 L 18.54 6.48 L 18.54 37.62 L 11.34 37.62 L 11.34 6.48 L 0 6.48 L 0 0 Z M 34.32 0 L 41.52 0 L 41.52 37.62 L 34.32 37.62 L 34.32 0 Z" vector-effect="non-scaling-stroke"/></g></svg>